<svg xmlns="http://www.w3.org/2000/svg" width="64" height="64" viewBox="0 0 64 64" fill="none">

<rect width="100%" height="100%" rx="12" fill="#0B0B0B"/>
<defs>
  
  <filter id="nodeShadow" x="-20%" y="-20%" width="140%" height="140%">
    <feDropShadow dx="0" dy="1.2" stdDeviation="1.2" flood-color="#000000" flood-opacity="0.30"/>
  </filter>
  <style>
    .brand-text { font-family: "Inter Tight", Inter, system-ui, -apple-system, "Segoe UI", Roboto, Arial, sans-serif; }
    .evolving { font-size: 54px; font-weight: 500; letter-spacing: -0.04em; }
    .orgs { font-size: 54px; font-weight: 700; letter-spacing: -0.04em; }
    .small { font-size: 16px; font-weight: 500; letter-spacing: -0.01em; }
  </style>
</defs>

<line x1="14.4" y1="34.0" x2="17.6" y2="22.4" stroke="#B8CF1E" stroke-width="1.80" stroke-linecap="round" opacity="0.97"/>
<line x1="14.4" y1="34.0" x2="20.0" y2="42.4" stroke="#B8CF1E" stroke-width="1.80" stroke-linecap="round" opacity="0.97"/>
<line x1="14.4" y1="34.0" x2="14.0" y2="44.8" stroke="#B8CF1E" stroke-width="1.80" stroke-linecap="round" opacity="0.97"/>
<line x1="14.4" y1="34.0" x2="37.6" y2="37.6" stroke="#B8CF1E" stroke-width="1.80" stroke-linecap="round" opacity="0.97"/>
<line x1="17.6" y1="22.4" x2="25.6" y2="16.8" stroke="#B1CB1D" stroke-width="1.80" stroke-linecap="round" opacity="0.97"/>
<line x1="17.6" y1="22.4" x2="34.4" y2="15.6" stroke="#B1CB1D" stroke-width="1.80" stroke-linecap="round" opacity="0.97"/>
<line x1="17.6" y1="22.4" x2="20.0" y2="42.4" stroke="#B1CB1D" stroke-width="1.80" stroke-linecap="round" opacity="0.97"/>
<line x1="25.6" y1="16.8" x2="34.4" y2="15.6" stroke="#8DC62F" stroke-width="1.80" stroke-linecap="round" opacity="0.97"/>
<line x1="25.6" y1="16.8" x2="41.6" y2="17.6" stroke="#8DC62F" stroke-width="1.80" stroke-linecap="round" opacity="0.97"/>
<line x1="25.6" y1="16.8" x2="47.6" y2="20.0" stroke="#8DC62F" stroke-width="1.80" stroke-linecap="round" opacity="0.97"/>
<line x1="34.4" y1="15.6" x2="41.6" y2="17.6" stroke="#53B44F" stroke-width="1.80" stroke-linecap="round" opacity="0.97"/>
<line x1="34.4" y1="15.6" x2="47.6" y2="20.0" stroke="#53B44F" stroke-width="1.80" stroke-linecap="round" opacity="0.97"/>
<line x1="41.6" y1="17.6" x2="47.6" y2="20.0" stroke="#35B497" stroke-width="1.80" stroke-linecap="round" opacity="0.97"/>
<line x1="41.6" y1="17.6" x2="50.8" y2="27.2" stroke="#35B497" stroke-width="1.80" stroke-linecap="round" opacity="0.97"/>
<line x1="47.6" y1="20.0" x2="50.8" y2="27.2" stroke="#1E9BCB" stroke-width="1.80" stroke-linecap="round" opacity="0.97"/>
<line x1="47.6" y1="20.0" x2="44.8" y2="34.0" stroke="#1E9BCB" stroke-width="1.80" stroke-linecap="round" opacity="0.97"/>
<line x1="50.8" y1="27.2" x2="44.8" y2="34.0" stroke="#2196C6" stroke-width="1.80" stroke-linecap="round" opacity="0.97"/>
<line x1="44.8" y1="34.0" x2="37.6" y2="37.6" stroke="#2196C6" stroke-width="1.80" stroke-linecap="round" opacity="0.97"/>
<line x1="37.6" y1="37.6" x2="30.8" y2="40.4" stroke="#22A7B5" stroke-width="1.80" stroke-linecap="round" opacity="0.97"/>
<line x1="37.6" y1="37.6" x2="32.8" y2="54.0" stroke="#22A7B5" stroke-width="1.80" stroke-linecap="round" opacity="0.97"/>
<line x1="30.8" y1="40.4" x2="20.0" y2="42.4" stroke="#3AB38B" stroke-width="1.80" stroke-linecap="round" opacity="0.97"/>
<line x1="30.8" y1="40.4" x2="32.8" y2="54.0" stroke="#3AB38B" stroke-width="1.80" stroke-linecap="round" opacity="0.97"/>
<line x1="20.0" y1="42.4" x2="14.0" y2="44.8" stroke="#78BE43" stroke-width="1.80" stroke-linecap="round" opacity="0.97"/>
<line x1="20.0" y1="42.4" x2="22.4" y2="51.2" stroke="#78BE43" stroke-width="1.80" stroke-linecap="round" opacity="0.97"/>
<line x1="14.0" y1="44.8" x2="17.2" y2="53.6" stroke="#8FC13B" stroke-width="1.80" stroke-linecap="round" opacity="0.97"/>
<line x1="14.0" y1="44.8" x2="22.4" y2="51.2" stroke="#8FC13B" stroke-width="1.80" stroke-linecap="round" opacity="0.97"/>
<line x1="17.2" y1="53.6" x2="22.4" y2="51.2" stroke="#61BA54" stroke-width="1.80" stroke-linecap="round" opacity="0.97"/>
<line x1="17.2" y1="53.6" x2="24.0" y2="58.0" stroke="#61BA54" stroke-width="1.80" stroke-linecap="round" opacity="0.97"/>
<line x1="22.4" y1="51.2" x2="27.2" y2="49.6" stroke="#4FB875" stroke-width="1.80" stroke-linecap="round" opacity="0.97"/>
<line x1="22.4" y1="51.2" x2="24.0" y2="58.0" stroke="#4FB875" stroke-width="1.80" stroke-linecap="round" opacity="0.97"/>
<line x1="27.2" y1="49.6" x2="31.2" y2="57.6" stroke="#36B391" stroke-width="1.80" stroke-linecap="round" opacity="0.97"/>
<line x1="27.2" y1="49.6" x2="32.8" y2="54.0" stroke="#36B391" stroke-width="1.80" stroke-linecap="round" opacity="0.97"/>
<line x1="31.2" y1="57.6" x2="32.8" y2="54.0" stroke="#1E9BCB" stroke-width="1.80" stroke-linecap="round" opacity="0.97"/>
<line x1="31.2" y1="57.6" x2="24.0" y2="58.0" stroke="#1E9BCB" stroke-width="1.80" stroke-linecap="round" opacity="0.97"/>
<line x1="32.8" y1="54.0" x2="44.4" y2="56.4" stroke="#2196C6" stroke-width="1.80" stroke-linecap="round" opacity="0.97"/>
<line x1="32.8" y1="54.0" x2="44.4" y2="49.6" stroke="#2196C6" stroke-width="1.80" stroke-linecap="round" opacity="0.97"/>
<line x1="44.4" y1="56.4" x2="51.2" y2="54.4" stroke="#F28B11" stroke-width="1.80" stroke-linecap="round" opacity="0.97"/>
<line x1="44.4" y1="56.4" x2="44.4" y2="49.6" stroke="#F28B11" stroke-width="1.80" stroke-linecap="round" opacity="0.97"/>
<line x1="51.2" y1="54.4" x2="53.6" y2="47.2" stroke="#F28B11" stroke-width="1.80" stroke-linecap="round" opacity="0.97"/>
<line x1="51.2" y1="54.4" x2="44.4" y2="56.4" stroke="#F28B11" stroke-width="1.80" stroke-linecap="round" opacity="0.97"/>
<line x1="53.6" y1="47.2" x2="49.2" y2="48.4" stroke="#F58C10" stroke-width="1.80" stroke-linecap="round" opacity="0.97"/>
<line x1="53.6" y1="47.2" x2="44.4" y2="49.6" stroke="#F58C10" stroke-width="1.80" stroke-linecap="round" opacity="0.97"/>
<line x1="49.2" y1="48.4" x2="44.4" y2="49.6" stroke="#F28B11" stroke-width="1.80" stroke-linecap="round" opacity="0.97"/>
<line x1="14.4" y1="34.0" x2="37.6" y2="37.6" stroke="#B8CF1E" stroke-width="1.80" stroke-linecap="round" opacity="0.97"/>
<line x1="14.4" y1="34.0" x2="30.8" y2="40.4" stroke="#B8CF1E" stroke-width="1.80" stroke-linecap="round" opacity="0.97"/>
<line x1="32.8" y1="54.0" x2="51.2" y2="54.4" stroke="#2196C6" stroke-width="1.80" stroke-linecap="round" opacity="0.97"/>
<circle cx="14.4" cy="34.0" r="4.8" fill="#B8CF1E" stroke="#FFFFFF" stroke-opacity="0.10" stroke-width="0.60" filter="url(#nodeShadow)"/>
<circle cx="17.6" cy="22.4" r="3.2" fill="#B1CB1D" stroke="#FFFFFF" stroke-opacity="0.10" stroke-width="0.60" filter="url(#nodeShadow)"/>
<circle cx="25.6" cy="16.8" r="3.2" fill="#8DC62F" stroke="#FFFFFF" stroke-opacity="0.10" stroke-width="0.60" filter="url(#nodeShadow)"/>
<circle cx="34.4" cy="15.6" r="2.0" fill="#53B44F" stroke="#FFFFFF" stroke-opacity="0.10" stroke-width="0.60" filter="url(#nodeShadow)"/>
<circle cx="41.6" cy="17.6" r="1.6" fill="#35B497" stroke="#FFFFFF" stroke-opacity="0.10" stroke-width="0.60" filter="url(#nodeShadow)"/>
<circle cx="47.6" cy="20.0" r="3.2" fill="#1E9BCB" stroke="#FFFFFF" stroke-opacity="0.10" stroke-width="0.60" filter="url(#nodeShadow)"/>
<circle cx="50.8" cy="27.2" r="2.4" fill="#2196C6" stroke="#FFFFFF" stroke-opacity="0.10" stroke-width="0.60" filter="url(#nodeShadow)"/>
<circle cx="44.8" cy="34.0" r="3.2" fill="#2196C6" stroke="#FFFFFF" stroke-opacity="0.10" stroke-width="0.60" filter="url(#nodeShadow)"/>
<circle cx="37.6" cy="37.6" r="1.6" fill="#22A7B5" stroke="#FFFFFF" stroke-opacity="0.10" stroke-width="0.60" filter="url(#nodeShadow)"/>
<circle cx="30.8" cy="40.4" r="2.4" fill="#3AB38B" stroke="#FFFFFF" stroke-opacity="0.10" stroke-width="0.60" filter="url(#nodeShadow)"/>
<circle cx="20.0" cy="42.4" r="3.6" fill="#78BE43" stroke="#FFFFFF" stroke-opacity="0.10" stroke-width="0.60" filter="url(#nodeShadow)"/>
<circle cx="14.0" cy="44.8" r="2.0" fill="#8FC13B" stroke="#FFFFFF" stroke-opacity="0.10" stroke-width="0.60" filter="url(#nodeShadow)"/>
<circle cx="17.2" cy="53.6" r="2.4" fill="#61BA54" stroke="#FFFFFF" stroke-opacity="0.10" stroke-width="0.60" filter="url(#nodeShadow)"/>
<circle cx="22.4" cy="51.2" r="1.8" fill="#4FB875" stroke="#FFFFFF" stroke-opacity="0.10" stroke-width="0.60" filter="url(#nodeShadow)"/>
<circle cx="27.2" cy="49.6" r="1.8" fill="#36B391" stroke="#FFFFFF" stroke-opacity="0.10" stroke-width="0.60" filter="url(#nodeShadow)"/>
<circle cx="31.2" cy="57.6" r="2.0" fill="#1E9BCB" stroke="#FFFFFF" stroke-opacity="0.10" stroke-width="0.60" filter="url(#nodeShadow)"/>
<circle cx="24.0" cy="58.0" r="2.2" fill="#2DACC0" stroke="#FFFFFF" stroke-opacity="0.10" stroke-width="0.60" filter="url(#nodeShadow)"/>
<circle cx="32.8" cy="54.0" r="3.6" fill="#2196C6" stroke="#FFFFFF" stroke-opacity="0.10" stroke-width="0.60" filter="url(#nodeShadow)"/>
<circle cx="44.4" cy="56.4" r="2.2" fill="#F28B11" stroke="#FFFFFF" stroke-opacity="0.10" stroke-width="0.60" filter="url(#nodeShadow)"/>
<circle cx="51.2" cy="54.4" r="2.4" fill="#F28B11" stroke="#FFFFFF" stroke-opacity="0.10" stroke-width="0.60" filter="url(#nodeShadow)"/>
<circle cx="53.6" cy="47.2" r="3.0" fill="#F58C10" stroke="#FFFFFF" stroke-opacity="0.10" stroke-width="0.60" filter="url(#nodeShadow)"/>
<circle cx="49.2" cy="48.4" r="1.6" fill="#F28B11" stroke="#FFFFFF" stroke-opacity="0.10" stroke-width="0.60" filter="url(#nodeShadow)"/>
<circle cx="44.4" cy="49.6" r="2.0" fill="#F28B11" stroke="#FFFFFF" stroke-opacity="0.10" stroke-width="0.60" filter="url(#nodeShadow)"/>
</svg>