<svg xmlns="http://www.w3.org/2000/svg" width="980" height="360" viewBox="0 0 980 360" fill="none">

<rect width="100%" height="100%" fill="#0B0B0B"/>
<defs>
  
  <filter id="nodeShadow" x="-20%" y="-20%" width="140%" height="140%">
    <feDropShadow dx="0" dy="1.2" stdDeviation="1.2" flood-color="#000000" flood-opacity="0.30"/>
  </filter>
  <style>
    .brand-text { font-family: "Inter Tight", Inter, system-ui, -apple-system, "Segoe UI", Roboto, Arial, sans-serif; }
    .evolving { font-size: 54px; font-weight: 500; letter-spacing: -0.04em; }
    .orgs { font-size: 54px; font-weight: 700; letter-spacing: -0.04em; }
    .small { font-size: 16px; font-weight: 500; letter-spacing: -0.01em; }
  </style>
</defs>

<line x1="112.0" y1="190.0" x2="128.0" y2="132.0" stroke="#B8CF1E" stroke-width="2.30" stroke-linecap="round" opacity="0.97"/>
<line x1="112.0" y1="190.0" x2="140.0" y2="232.0" stroke="#B8CF1E" stroke-width="2.30" stroke-linecap="round" opacity="0.97"/>
<line x1="112.0" y1="190.0" x2="110.0" y2="244.0" stroke="#B8CF1E" stroke-width="2.30" stroke-linecap="round" opacity="0.97"/>
<line x1="112.0" y1="190.0" x2="228.0" y2="208.0" stroke="#B8CF1E" stroke-width="2.30" stroke-linecap="round" opacity="0.97"/>
<line x1="128.0" y1="132.0" x2="168.0" y2="104.0" stroke="#B1CB1D" stroke-width="2.30" stroke-linecap="round" opacity="0.97"/>
<line x1="128.0" y1="132.0" x2="212.0" y2="98.0" stroke="#B1CB1D" stroke-width="2.30" stroke-linecap="round" opacity="0.97"/>
<line x1="128.0" y1="132.0" x2="140.0" y2="232.0" stroke="#B1CB1D" stroke-width="2.30" stroke-linecap="round" opacity="0.97"/>
<line x1="168.0" y1="104.0" x2="212.0" y2="98.0" stroke="#8DC62F" stroke-width="2.30" stroke-linecap="round" opacity="0.97"/>
<line x1="168.0" y1="104.0" x2="248.0" y2="108.0" stroke="#8DC62F" stroke-width="2.30" stroke-linecap="round" opacity="0.97"/>
<line x1="168.0" y1="104.0" x2="278.0" y2="120.0" stroke="#8DC62F" stroke-width="2.30" stroke-linecap="round" opacity="0.97"/>
<line x1="212.0" y1="98.0" x2="248.0" y2="108.0" stroke="#53B44F" stroke-width="2.30" stroke-linecap="round" opacity="0.97"/>
<line x1="212.0" y1="98.0" x2="278.0" y2="120.0" stroke="#53B44F" stroke-width="2.30" stroke-linecap="round" opacity="0.97"/>
<line x1="248.0" y1="108.0" x2="278.0" y2="120.0" stroke="#35B497" stroke-width="2.30" stroke-linecap="round" opacity="0.97"/>
<line x1="248.0" y1="108.0" x2="294.0" y2="156.0" stroke="#35B497" stroke-width="2.30" stroke-linecap="round" opacity="0.97"/>
<line x1="278.0" y1="120.0" x2="294.0" y2="156.0" stroke="#1E9BCB" stroke-width="2.30" stroke-linecap="round" opacity="0.97"/>
<line x1="278.0" y1="120.0" x2="264.0" y2="190.0" stroke="#1E9BCB" stroke-width="2.30" stroke-linecap="round" opacity="0.97"/>
<line x1="294.0" y1="156.0" x2="264.0" y2="190.0" stroke="#2196C6" stroke-width="2.30" stroke-linecap="round" opacity="0.97"/>
<line x1="264.0" y1="190.0" x2="228.0" y2="208.0" stroke="#2196C6" stroke-width="2.30" stroke-linecap="round" opacity="0.97"/>
<line x1="228.0" y1="208.0" x2="194.0" y2="222.0" stroke="#22A7B5" stroke-width="2.30" stroke-linecap="round" opacity="0.97"/>
<line x1="228.0" y1="208.0" x2="204.0" y2="290.0" stroke="#22A7B5" stroke-width="2.30" stroke-linecap="round" opacity="0.97"/>
<line x1="194.0" y1="222.0" x2="140.0" y2="232.0" stroke="#3AB38B" stroke-width="2.30" stroke-linecap="round" opacity="0.97"/>
<line x1="194.0" y1="222.0" x2="204.0" y2="290.0" stroke="#3AB38B" stroke-width="2.30" stroke-linecap="round" opacity="0.97"/>
<line x1="140.0" y1="232.0" x2="110.0" y2="244.0" stroke="#78BE43" stroke-width="2.30" stroke-linecap="round" opacity="0.97"/>
<line x1="140.0" y1="232.0" x2="152.0" y2="276.0" stroke="#78BE43" stroke-width="2.30" stroke-linecap="round" opacity="0.97"/>
<line x1="110.0" y1="244.0" x2="126.0" y2="288.0" stroke="#8FC13B" stroke-width="2.30" stroke-linecap="round" opacity="0.97"/>
<line x1="110.0" y1="244.0" x2="152.0" y2="276.0" stroke="#8FC13B" stroke-width="2.30" stroke-linecap="round" opacity="0.97"/>
<line x1="126.0" y1="288.0" x2="152.0" y2="276.0" stroke="#61BA54" stroke-width="2.30" stroke-linecap="round" opacity="0.97"/>
<line x1="126.0" y1="288.0" x2="160.0" y2="310.0" stroke="#61BA54" stroke-width="2.30" stroke-linecap="round" opacity="0.97"/>
<line x1="152.0" y1="276.0" x2="176.0" y2="268.0" stroke="#4FB875" stroke-width="2.30" stroke-linecap="round" opacity="0.97"/>
<line x1="152.0" y1="276.0" x2="160.0" y2="310.0" stroke="#4FB875" stroke-width="2.30" stroke-linecap="round" opacity="0.97"/>
<line x1="176.0" y1="268.0" x2="196.0" y2="308.0" stroke="#36B391" stroke-width="2.30" stroke-linecap="round" opacity="0.97"/>
<line x1="176.0" y1="268.0" x2="204.0" y2="290.0" stroke="#36B391" stroke-width="2.30" stroke-linecap="round" opacity="0.97"/>
<line x1="196.0" y1="308.0" x2="204.0" y2="290.0" stroke="#1E9BCB" stroke-width="2.30" stroke-linecap="round" opacity="0.97"/>
<line x1="196.0" y1="308.0" x2="160.0" y2="310.0" stroke="#1E9BCB" stroke-width="2.30" stroke-linecap="round" opacity="0.97"/>
<line x1="204.0" y1="290.0" x2="262.0" y2="302.0" stroke="#2196C6" stroke-width="2.30" stroke-linecap="round" opacity="0.97"/>
<line x1="204.0" y1="290.0" x2="262.0" y2="268.0" stroke="#2196C6" stroke-width="2.30" stroke-linecap="round" opacity="0.97"/>
<line x1="262.0" y1="302.0" x2="296.0" y2="292.0" stroke="#F28B11" stroke-width="2.30" stroke-linecap="round" opacity="0.97"/>
<line x1="262.0" y1="302.0" x2="262.0" y2="268.0" stroke="#F28B11" stroke-width="2.30" stroke-linecap="round" opacity="0.97"/>
<line x1="296.0" y1="292.0" x2="308.0" y2="256.0" stroke="#F28B11" stroke-width="2.30" stroke-linecap="round" opacity="0.97"/>
<line x1="296.0" y1="292.0" x2="262.0" y2="302.0" stroke="#F28B11" stroke-width="2.30" stroke-linecap="round" opacity="0.97"/>
<line x1="308.0" y1="256.0" x2="286.0" y2="262.0" stroke="#F58C10" stroke-width="2.30" stroke-linecap="round" opacity="0.97"/>
<line x1="308.0" y1="256.0" x2="262.0" y2="268.0" stroke="#F58C10" stroke-width="2.30" stroke-linecap="round" opacity="0.97"/>
<line x1="286.0" y1="262.0" x2="262.0" y2="268.0" stroke="#F28B11" stroke-width="2.30" stroke-linecap="round" opacity="0.97"/>
<line x1="112.0" y1="190.0" x2="228.0" y2="208.0" stroke="#B8CF1E" stroke-width="2.30" stroke-linecap="round" opacity="0.97"/>
<line x1="112.0" y1="190.0" x2="194.0" y2="222.0" stroke="#B8CF1E" stroke-width="2.30" stroke-linecap="round" opacity="0.97"/>
<line x1="204.0" y1="290.0" x2="296.0" y2="292.0" stroke="#2196C6" stroke-width="2.30" stroke-linecap="round" opacity="0.97"/>
<circle cx="112.0" cy="190.0" r="24.0" fill="#B8CF1E" stroke="#FFFFFF" stroke-opacity="0.10" stroke-width="1.00" filter="url(#nodeShadow)"/>
<circle cx="128.0" cy="132.0" r="16.0" fill="#B1CB1D" stroke="#FFFFFF" stroke-opacity="0.10" stroke-width="1.00" filter="url(#nodeShadow)"/>
<circle cx="168.0" cy="104.0" r="16.0" fill="#8DC62F" stroke="#FFFFFF" stroke-opacity="0.10" stroke-width="1.00" filter="url(#nodeShadow)"/>
<circle cx="212.0" cy="98.0" r="10.0" fill="#53B44F" stroke="#FFFFFF" stroke-opacity="0.10" stroke-width="1.00" filter="url(#nodeShadow)"/>
<circle cx="248.0" cy="108.0" r="8.0" fill="#35B497" stroke="#FFFFFF" stroke-opacity="0.10" stroke-width="1.00" filter="url(#nodeShadow)"/>
<circle cx="278.0" cy="120.0" r="16.0" fill="#1E9BCB" stroke="#FFFFFF" stroke-opacity="0.10" stroke-width="1.00" filter="url(#nodeShadow)"/>
<circle cx="294.0" cy="156.0" r="12.0" fill="#2196C6" stroke="#FFFFFF" stroke-opacity="0.10" stroke-width="1.00" filter="url(#nodeShadow)"/>
<circle cx="264.0" cy="190.0" r="16.0" fill="#2196C6" stroke="#FFFFFF" stroke-opacity="0.10" stroke-width="1.00" filter="url(#nodeShadow)"/>
<circle cx="228.0" cy="208.0" r="8.0" fill="#22A7B5" stroke="#FFFFFF" stroke-opacity="0.10" stroke-width="1.00" filter="url(#nodeShadow)"/>
<circle cx="194.0" cy="222.0" r="12.0" fill="#3AB38B" stroke="#FFFFFF" stroke-opacity="0.10" stroke-width="1.00" filter="url(#nodeShadow)"/>
<circle cx="140.0" cy="232.0" r="18.0" fill="#78BE43" stroke="#FFFFFF" stroke-opacity="0.10" stroke-width="1.00" filter="url(#nodeShadow)"/>
<circle cx="110.0" cy="244.0" r="10.0" fill="#8FC13B" stroke="#FFFFFF" stroke-opacity="0.10" stroke-width="1.00" filter="url(#nodeShadow)"/>
<circle cx="126.0" cy="288.0" r="12.0" fill="#61BA54" stroke="#FFFFFF" stroke-opacity="0.10" stroke-width="1.00" filter="url(#nodeShadow)"/>
<circle cx="152.0" cy="276.0" r="9.0" fill="#4FB875" stroke="#FFFFFF" stroke-opacity="0.10" stroke-width="1.00" filter="url(#nodeShadow)"/>
<circle cx="176.0" cy="268.0" r="9.0" fill="#36B391" stroke="#FFFFFF" stroke-opacity="0.10" stroke-width="1.00" filter="url(#nodeShadow)"/>
<circle cx="196.0" cy="308.0" r="10.0" fill="#1E9BCB" stroke="#FFFFFF" stroke-opacity="0.10" stroke-width="1.00" filter="url(#nodeShadow)"/>
<circle cx="160.0" cy="310.0" r="11.0" fill="#2DACC0" stroke="#FFFFFF" stroke-opacity="0.10" stroke-width="1.00" filter="url(#nodeShadow)"/>
<circle cx="204.0" cy="290.0" r="18.0" fill="#2196C6" stroke="#FFFFFF" stroke-opacity="0.10" stroke-width="1.00" filter="url(#nodeShadow)"/>
<circle cx="262.0" cy="302.0" r="11.0" fill="#F28B11" stroke="#FFFFFF" stroke-opacity="0.10" stroke-width="1.00" filter="url(#nodeShadow)"/>
<circle cx="296.0" cy="292.0" r="12.0" fill="#F28B11" stroke="#FFFFFF" stroke-opacity="0.10" stroke-width="1.00" filter="url(#nodeShadow)"/>
<circle cx="308.0" cy="256.0" r="15.0" fill="#F58C10" stroke="#FFFFFF" stroke-opacity="0.10" stroke-width="1.00" filter="url(#nodeShadow)"/>
<circle cx="286.0" cy="262.0" r="8.0" fill="#F28B11" stroke="#FFFFFF" stroke-opacity="0.10" stroke-width="1.00" filter="url(#nodeShadow)"/>
<circle cx="262.0" cy="268.0" r="10.0" fill="#F28B11" stroke="#FFFFFF" stroke-opacity="0.10" stroke-width="1.00" filter="url(#nodeShadow)"/>
<text x="360" y="190" class="brand-text evolving" fill="#FFFFFF">Evolving</text>
<text x="360" y="252" class="brand-text orgs" fill="#F97316">Orgs</text>
</svg>